<?xml version="1.0" encoding="UTF-8" standalone="no"?>
<!-- Created with Inkscape (http://www.inkscape.org/) -->

<svg
   version="1.1"
   id="svg1"
   width="685.79602"
   height="685.79602"
   viewBox="0 0 685.79602 685.79602"
   sodipodi:docname="logo_bréf.svg"
   inkscape:version="1.3.2 (091e20e, 2023-11-25, custom)"
   xmlns:inkscape="http://www.inkscape.org/namespaces/inkscape"
   xmlns:sodipodi="http://sodipodi.sourceforge.net/DTD/sodipodi-0.dtd"
   xmlns="http://www.w3.org/2000/svg"
   xmlns:svg="http://www.w3.org/2000/svg">
  <defs
     id="defs1" />
  <sodipodi:namedview
     id="namedview1"
     pagecolor="#ffffff"
     bordercolor="#666666"
     borderopacity="1.0"
     inkscape:showpageshadow="2"
     inkscape:pageopacity="0.0"
     inkscape:pagecheckerboard="0"
     inkscape:deskcolor="#d1d1d1"
     inkscape:zoom="1.1359063"
     inkscape:cx="342.89801"
     inkscape:cy="342.89801"
     inkscape:window-width="1920"
     inkscape:window-height="1017"
     inkscape:window-x="-8"
     inkscape:window-y="-8"
     inkscape:window-maximized="1"
     inkscape:current-layer="g1">
    <inkscape:page
       x="0"
       y="0"
       inkscape:label="1"
       id="page1"
       width="685.79602"
       height="685.79602"
       margin="0"
       bleed="0" />
  </sodipodi:namedview>
  <g
     id="g1"
     inkscape:groupmode="layer"
     inkscape:label="1">
    <g
       id="group-MC0">
      <path
         id="path2"
         d="m 0,0 -257.174,-148.348 v -26.825 L 0,-26.825 Z"
         style="fill:#22457d;fill-opacity:1;fill-rule:nonzero;stroke:none"
         transform="matrix(1.3333333,0,0,-1.3333333,342.8988,-4e-4)" />
      <path
         id="path3"
         d="m 0,0 v -26.825 l 257.173,-148.348 v 26.825 z"
         style="fill:#2751a8;fill-opacity:1;fill-rule:nonzero;stroke:none"
         transform="matrix(1.3333333,0,0,-1.3333333,342.8988,-4e-4)" />
      <path
         id="path4"
         d="m 0,0 v -216.859 l 257.173,156 v 210 z"
         style="fill:#22457d;fill-opacity:1;fill-rule:nonzero;stroke:none"
         transform="matrix(1.3333333,0,0,-1.3333333,342.8988,396.6512)" />
      <path
         id="path5"
         d="M 0,0 257.174,-156 V 60.859 L 0,210 Z"
         style="fill:#2751a8;fill-opacity:1;fill-rule:nonzero;stroke:none"
         transform="matrix(1.3333333,0,0,-1.3333333,0,477.7964)" />
      <path
         id="path6"
         d="M 0,0 25.417,-15.117 171.69,71.262 146.289,86.395 Z"
         style="fill:#ce2025;fill-opacity:1;fill-rule:nonzero;stroke:none"
         transform="matrix(1.3333333,0,0,-1.3333333,217.61093,255.47707)" />
      <path
         id="path7"
         d="M 0,0 66.603,39.33 V -53.8 L 0,-93.131 Z"
         style="fill:#ef2e32;fill-opacity:1;fill-rule:nonzero;stroke:none"
         transform="matrix(1.3333333,0,0,-1.3333333,274.39413,137.93867)" />
    </g>
    <g
       id="group-MC1">
      <path
         id="path8"
         d="M 0,0 H 271.173"
         style="fill:none;stroke:#ffffff;stroke-width:4;stroke-linecap:butt;stroke-linejoin:miter;stroke-miterlimit:10;stroke-dasharray:none;stroke-opacity:1"
         transform="matrix(1.3333333,0,0,-1.3333333,159.70267,551.50707)" />
      <path
         id="path9"
         d="M 0,0 H 271.173"
         style="fill:none;stroke:#ffffff;stroke-width:4;stroke-linecap:butt;stroke-linejoin:miter;stroke-miterlimit:10;stroke-dasharray:none;stroke-opacity:1"
         transform="matrix(1.3333333,0,0,-1.3333333,159.70267,430.4628)" />
      <path
         id="path10"
         d="M 0,0 5.282,15.913"
         style="fill:none;stroke:#22457d;stroke-width:10;stroke-linecap:butt;stroke-linejoin:miter;stroke-miterlimit:10;stroke-dasharray:none;stroke-opacity:1"
         transform="matrix(1.3333333,0,0,-1.3333333,384.96373,441.68027)" />
      <path
         id="path11"
         d="M 0,0 15.13,16.108"
         style="fill:none;stroke:#22457d;stroke-width:10;stroke-linecap:butt;stroke-linejoin:miter;stroke-miterlimit:10;stroke-dasharray:none;stroke-opacity:1"
         transform="matrix(1.3333333,0,0,-1.3333333,390.1812,441.94067)" />
      <text
         id="text11"
         xml:space="preserve"
         transform="matrix(1.3333333,0,0,1.3333333,154.68493,535.33893)"><tspan
           style="font-variant:normal;font-weight:700;font-stretch:normal;font-size:103px;font-family:Garamond;writing-mode:lr-tb;fill:#ffffff;fill-opacity:1;fill-rule:nonzero;stroke:none"
           x="0 69.731003 141.625 214.549"
           y="0"
           sodipodi:role="line"
           id="tspan11">BRÉF</tspan></text>
    </g>
  </g>
</svg>
